# xmcd
# 
# Track frame offsets:
#     150
#     41840
#     95293
#     154815
#     192255
#     232653
#     250562
# 
# Disc length: 3751
# 
# Revision: 1
# Processed by: cddbd v1.5.2PL0 Copyright (c) Steve Scherf et al.
# Submitted via: fre:ac v1.0.31
# 
DISCID=490ea507
DTITLE=Weather Report - The Legendary Live Tapes 1978-1981 Disc 4
DYEAR=2015
DGENRE=Jazz
TTITLE0=Elegant People
TTITLE1=Scarlet Woman
TTITLE2=Black Market
TTITLE3=Jaco Solo
TTITLE4=Teen Town
TTITLE5=Peter's Drum Solo
TTITLE6=Directions
EXTD=YEAR: 2015
EXTT0=
EXTT1=
EXTT2=
EXTT3=
EXTT4=
EXTT5=
EXTT6=
PLAYORDER=
